<svg width="99" height="14" viewBox="0 0 99 14" fill="none" xmlns="http://www.w3.org/2000/svg">
<path d="M1.275 26V8.64H6.42V26H1.275ZM3.83 6.085C2.96667 6.085 2.255 5.84 1.695 5.35C1.135 4.83667 0.855 4.18333 0.855 3.39C0.855 2.59667 1.135 1.955 1.695 1.465C2.255 0.974998 2.96667 0.729998 3.83 0.729998C4.71667 0.729998 5.42833 0.974998 5.965 1.465C6.525 1.955 6.805 2.59667 6.805 3.39C6.805 4.18333 6.525 4.83667 5.965 5.35C5.42833 5.84 4.71667 6.085 3.83 6.085ZM20.8879 26.42C19.4412 26.42 18.0762 26.175 16.7929 25.685C15.5095 25.1717 14.3779 24.425 13.3979 23.445C12.4412 22.465 11.6829 21.2517 11.1229 19.805C10.5629 18.335 10.2829 16.6433 10.2829 14.73C10.2829 12.84 10.5745 11.16 11.1579 9.69C11.7412 8.19667 12.5229 6.93667 13.5029 5.91C14.4829 4.88333 15.6262 4.10167 16.9329 3.565C18.2395 3.02833 19.6162 2.76 21.0629 2.76C22.5329 2.76 23.8512 3.06333 25.0179 3.67C26.1845 4.25333 27.1529 4.94167 27.9229 5.735L25.1929 9.025C24.6095 8.48833 23.9912 8.05667 23.3379 7.73C22.7079 7.38 21.9845 7.205 21.1679 7.205C20.3979 7.205 19.6629 7.38 18.9629 7.73C18.2862 8.05667 17.6912 8.535 17.1779 9.165C16.6879 9.795 16.2912 10.565 15.9879 11.475C15.7079 12.385 15.5679 13.4117 15.5679 14.555C15.5679 16.9117 16.0695 18.7433 17.0729 20.05C18.0762 21.3333 19.4179 21.975 21.0979 21.975C22.0312 21.975 22.8595 21.7767 23.5829 21.38C24.3295 20.96 24.9829 20.4467 25.5429 19.84L28.2729 23.06C26.3595 25.3 23.8979 26.42 20.8879 26.42ZM39.7151 26.42C38.1751 26.42 36.7635 26.1517 35.4801 25.615C34.2201 25.055 33.1351 24.2617 32.2251 23.235C31.3151 22.2083 30.6035 20.96 30.0901 19.49C29.6001 18.02 29.3551 16.3517 29.3551 14.485C29.3551 12.6183 29.6001 10.9617 30.0901 9.515C30.6035 8.045 31.3151 6.82 32.2251 5.84C33.1351 4.83667 34.2201 4.07833 35.4801 3.565C36.7635 3.02833 38.1751 2.76 39.7151 2.76C41.2551 2.76 42.6551 3.02833 43.9151 3.565C45.1985 4.07833 46.2951 4.83667 47.2051 5.84C48.1151 6.84333 48.8151 8.08 49.3051 9.55C49.8185 10.9967 50.0751 12.6417 50.0751 14.485C50.0751 16.3517 49.8185 18.02 49.3051 19.49C48.8151 20.96 48.1151 22.2083 47.2051 23.235C46.2951 24.2617 45.1985 25.055 43.9151 25.615C42.6551 26.1517 41.2551 26.42 39.7151 26.42ZM39.7151 21.975C41.2785 21.975 42.5151 21.31 43.4251 19.98C44.3351 18.6267 44.7901 16.795 44.7901 14.485C44.7901 12.1983 44.3351 10.4133 43.4251 9.13C42.5151 7.84667 41.2785 7.205 39.7151 7.205C38.1518 7.205 36.9151 7.84667 36.0051 9.13C35.0951 10.4133 34.6401 12.1983 34.6401 14.485C34.6401 16.795 35.0951 18.6267 36.0051 19.98C36.9151 21.31 38.1518 21.975 39.7151 21.975ZM54.3659 26V3.18H59.6509L65.6009 14.52L67.8409 19.56H67.9809C67.8642 18.3467 67.7242 16.9933 67.5609 15.5C67.4209 14.0067 67.3509 12.5833 67.3509 11.23V3.18H72.2509V26H66.9659L61.0159 14.625L58.7759 9.655H58.6359C58.7526 10.915 58.8809 12.2683 59.0209 13.715C59.1842 15.1617 59.2659 16.5617 59.2659 17.915V26H54.3659Z" fill="black"/>
<path d="M84.6073 26.42C83.1139 26.42 81.6206 26.1517 80.1273 25.615C78.6573 25.055 77.3389 24.2267 76.1723 23.13L79.1123 19.595C79.9289 20.295 80.8273 20.8667 81.8073 21.31C82.8106 21.7533 83.7906 21.975 84.7473 21.975C85.8206 21.975 86.6139 21.7767 87.1273 21.38C87.6639 20.9833 87.9323 20.4467 87.9323 19.77C87.9323 19.42 87.8506 19.1167 87.6873 18.86C87.5473 18.6033 87.3256 18.3817 87.0223 18.195C86.7423 17.985 86.3923 17.7983 85.9723 17.635C85.5756 17.4483 85.1323 17.25 84.6423 17.04L81.6673 15.78C81.0839 15.5467 80.5123 15.2433 79.9523 14.87C79.4156 14.4967 78.9256 14.065 78.4823 13.575C78.0623 13.0617 77.7239 12.4783 77.4673 11.825C77.2106 11.1483 77.0823 10.39 77.0823 9.55C77.0823 8.61667 77.2806 7.74167 77.6773 6.925C78.0739 6.085 78.6339 5.36167 79.3573 4.755C80.0806 4.125 80.9323 3.635 81.9123 3.285C82.9156 2.935 84.0123 2.76 85.2023 2.76C86.5323 2.76 87.8389 3.01667 89.1223 3.53C90.4289 4.04333 91.5723 4.79 92.5523 5.77L89.9273 9.025C89.1806 8.44167 88.4339 7.99833 87.6873 7.695C86.9406 7.36833 86.1123 7.205 85.2023 7.205C84.3156 7.205 83.6039 7.39167 83.0673 7.765C82.5539 8.115 82.2973 8.61667 82.2973 9.27C82.2973 9.62 82.3789 9.92333 82.5423 10.18C82.7289 10.4133 82.9739 10.635 83.2773 10.845C83.6039 11.0317 83.9773 11.2183 84.3973 11.405C84.8173 11.5683 85.2723 11.755 85.7623 11.965L88.7023 13.155C90.1023 13.715 91.1989 14.485 91.9923 15.465C92.8089 16.445 93.2173 17.74 93.2173 19.35C93.2173 20.3067 93.0189 21.2167 92.6223 22.08C92.2489 22.92 91.6889 23.6667 90.9423 24.32C90.2189 24.95 89.3206 25.4633 88.2473 25.86C87.1739 26.2333 85.9606 26.42 84.6073 26.42ZM100.852 26V7.52H94.5869V3.18H112.297V7.52H106.032V26H100.852ZM115.855 26V3.18H124.08C125.293 3.18 126.425 3.29667 127.475 3.53C128.548 3.76333 129.482 4.16 130.275 4.72C131.068 5.25667 131.698 5.98 132.165 6.89C132.632 7.8 132.865 8.93167 132.865 10.285C132.865 11.965 132.492 13.3533 131.745 14.45C131.022 15.5233 130.042 16.3283 128.805 16.865L133.985 26H128.21L123.835 17.775H121V26H115.855ZM121 13.68H123.66C125.013 13.68 126.04 13.4 126.74 12.84C127.463 12.2567 127.825 11.405 127.825 10.285C127.825 9.165 127.463 8.38333 126.74 7.94C126.04 7.49667 125.013 7.275 123.66 7.275H121V13.68ZM146.315 26.42C143.352 26.42 141.088 25.545 139.525 23.795C137.962 22.045 137.18 19.2567 137.18 15.43V3.18H142.36V15.955C142.36 18.195 142.698 19.7583 143.375 20.645C144.052 21.5317 145.032 21.975 146.315 21.975C147.598 21.975 148.59 21.5317 149.29 20.645C149.99 19.7583 150.34 18.195 150.34 15.955V3.18H155.31V15.43C155.31 19.2567 154.54 22.045 153 23.795C151.483 25.545 149.255 26.42 146.315 26.42ZM170.116 26.42C168.67 26.42 167.305 26.175 166.021 25.685C164.738 25.1717 163.606 24.425 162.626 23.445C161.67 22.465 160.911 21.2517 160.351 19.805C159.791 18.335 159.511 16.6433 159.511 14.73C159.511 12.84 159.803 11.16 160.386 9.69C160.97 8.19667 161.751 6.93667 162.731 5.91C163.711 4.88333 164.855 4.10167 166.161 3.565C167.468 3.02833 168.845 2.76 170.291 2.76C171.761 2.76 173.08 3.06333 174.246 3.67C175.413 4.25333 176.381 4.94167 177.151 5.735L174.421 9.025C173.838 8.48833 173.22 8.05667 172.566 7.73C171.936 7.38 171.213 7.205 170.396 7.205C169.626 7.205 168.891 7.38 168.191 7.73C167.515 8.05667 166.92 8.535 166.406 9.165C165.916 9.795 165.52 10.565 165.216 11.475C164.936 12.385 164.796 13.4117 164.796 14.555C164.796 16.9117 165.298 18.7433 166.301 20.05C167.305 21.3333 168.646 21.975 170.326 21.975C171.26 21.975 172.088 21.7767 172.811 21.38C173.558 20.96 174.211 20.4467 174.771 19.84L177.501 23.06C175.588 25.3 173.126 26.42 170.116 26.42ZM185.002 26V7.52H178.737V3.18H196.447V7.52H190.182V26H185.002Z" fill="#FCC139"/>
</svg>
